HIERARCHY
ROOT pelvis
{
  OFFSET 0 100 0
  CHANNELS 6 Xposition Yposition Zposition Zrotation Xrotation Yrotation
  JOINT pelvis_right_femur
  {
    OFFSET -10.78128 -3.44521 -0.5502486
    CHANNELS 3 Zrotation Xrotation Yrotation
    JOINT right_femur_tibia
    {
      OFFSET -0.8047443 -44.0398 -0.1307829
      CHANNELS 3 Zrotation Xrotation Yrotation
      JOINT right_tibia_foot
      {
        OFFSET 3.006224 -47.83518 -5
        CHANNELS 3 Zrotation Xrotation Yrotation
        End Site
        {
          OFFSET 0 -5 15
        }
      }
    }
  }
  JOINT pelvis_left_femur
  {
    OFFSET 10.78128 -3.44521 -0.5502486
    CHANNELS 3 Zrotation Xrotation Yrotation
    JOINT left_femur_tibia
    {
      OFFSET 0.8047443 -44.0398 -0.1307829
      CHANNELS 3 Zrotation Xrotation Yrotation
      JOINT left_tibia_foot
      {
        OFFSET -4.370144 -48.10324 -4.275266
        CHANNELS 3 Zrotation Xrotation Yrotation
        End Site
        {
          OFFSET 0 -5 15
        }
      }
    }
  }
  JOINT pelvis_spine1
  {
    OFFSET 0 6.468898 -3.129235
    CHANNELS 3 Zrotation Xrotation Yrotation
    JOINT spine1
    {
      OFFSET 0 23.15396 4.99043
      CHANNELS 3 Zrotation Xrotation Yrotation
      JOINT spine2
      {
        OFFSET 0 20.79997 -5.064912
        CHANNELS 3 Zrotation Xrotation Yrotation
        JOINT neck
        {
          OFFSET 0 14.38658 9.616178
          CHANNELS 3 Zrotation Xrotation Yrotation
          End Site
          {
            OFFSET 0 20 0
          }
        }
      }
      JOINT right_manubrium
      {
        OFFSET -5.722621 16.35077 3.967754
        CHANNELS 3 Zrotation Xrotation Yrotation
        JOINT right_clavicle
        {
          OFFSET -13.16364 1.694482 -4.693211
          CHANNELS 3 Zrotation Xrotation Yrotation
          JOINT right_humerus
          {
            OFFSET -28.5034 -0.3100689 -2.792744
            CHANNELS 3 Zrotation Xrotation Yrotation
            JOINT right_radius
            {
              OFFSET -25.15693 0.02248979 -1.271978
              CHANNELS 3 Zrotation Xrotation Yrotation
              End Site
              {
                OFFSET -15 0 0
              }
            }
          }
        }
      }
      JOINT left_manubrium
      {
        OFFSET 5.722621 16.35077 3.967754
        CHANNELS 3 Zrotation Xrotation Yrotation
        JOINT left_clavicle
        {
          OFFSET 13.16364 1.694482 -4.693211
          CHANNELS 3 Zrotation Xrotation Yrotation
          JOINT left_humerus
          {
            OFFSET 29.39168 -1.063119 -2.237045
            CHANNELS 3 Zrotation Xrotation Yrotation
            JOINT left_radius
            {
              OFFSET 24.59957 -0.9528479 0.9047498
              CHANNELS 3 Zrotation Xrotation Yrotation
              End Site
              {
                OFFSET 15 -0 -0
              }
            }
          }
        }
      }
    }
  }
}
MOTION
Frames: 17
Frame Time: 0.0416666666667
827.3473 103.1278 409.2955 -0.7366147 0.1800002 109.844 4.41818 -20.02198 8.260443 -0 35.70066 -0 -4.205934 -15.31429 -2.550124 -7.07874 13.68054 -23.75493 -0 5.846919 -0 7.921465 -16.62537 24.75272 -3.234542 -2.777534 3.636754 2.426091 8.836329 -6.945173 1.217291 22.49688 7.960866 2.992267 -24.65415 10.82497 6.919841 -18.52296 10.98126 85.84411 39.84423 -19.35321 -0 0 13.38577 -6.741809 10.66835 5.608081 4.277702 -18.22541 -3.099478 -93.65288 31.88555 22.54186 0 0 -21.30374 3.297801 16.16754 11.87316
829.2371 103.1286 408.248 -0.7373007 0.1771692 110.0641 4.41818 -20.02198 8.260443 -0 35.70066 -0 -4.205934 -15.31429 -2.550124 -7.07874 13.68054 -23.75493 -0 5.846919 -0 7.921465 -16.62537 24.75272 -3.234542 -2.777534 3.636754 2.426091 8.836329 -6.945173 1.217291 22.49688 7.960866 2.992267 -24.65415 10.82497 6.919841 -18.52296 10.98126 85.84411 39.84423 -19.35321 -0 0 13.38577 -6.741809 10.66835 5.608081 4.277702 -18.22541 -3.099478 -93.65288 31.88555 22.54186 0 0 -21.30374 3.297801 16.16754 11.87316
831.1228 103.1294 407.1933 -0.7379758 0.1743355 110.2842 4.41818 -20.02198 8.260443 -0 35.70066 -0 -4.205934 -15.31429 -2.550124 -7.07874 13.68054 -23.75493 -0 5.846919 -0 7.921465 -16.62537 24.75272 -3.234542 -2.777534 3.636754 2.426091 8.836329 -6.945173 1.217291 22.49688 7.960866 2.992267 -24.65415 10.82497 6.919841 -18.52296 10.98126 85.84411 39.84423 -19.35321 -0 0 13.38577 -6.741809 10.66835 5.608081 4.277702 -18.22541 -3.099478 -93.65288 31.88555 22.54186 0 0 -21.30374 3.297801 16.16754 11.87316
833.0045 103.1302 406.1313 -0.7386401 0.1714993 110.5043 4.41818 -20.02198 8.260443 -0 35.70066 -0 -4.205934 -15.31429 -2.550124 -7.07874 13.68054 -23.75493 -0 5.846919 -0 7.921465 -16.62537 24.75272 -3.234542 -2.777534 3.636754 2.426091 8.836329 -6.945173 1.217291 22.49688 7.960866 2.992267 -24.65415 10.82497 6.919841 -18.52296 10.98126 85.84411 39.84423 -19.35321 -0 0 13.38577 -6.741809 10.66835 5.608081 4.277702 -18.22541 -3.099478 -93.65288 31.88555 22.54186 0 0 -21.30374 3.297801 16.16754 11.87316
834.8821 103.1309 405.0622 -0.7392934 0.1686606 110.7244 4.41818 -20.02198 8.260443 -0 35.70066 -0 -4.205934 -15.31429 -2.550124 -7.07874 13.68054 -23.75493 -0 5.846919 -0 7.921465 -16.62537 24.75272 -3.234542 -2.777534 3.636754 2.426091 8.836329 -6.945173 1.217291 22.49688 7.960866 2.992267 -24.65415 10.82497 6.919841 -18.52296 10.98126 85.84411 39.84423 -19.35321 -0 0 13.38577 -6.741809 10.66835 5.608081 4.277702 -18.22541 -3.099478 -93.65288 31.88555 22.54186 0 0 -21.30374 3.297801 16.16754 11.87316
836.7555 103.1317 403.9858 -0.7399358 0.1658193 110.9445 4.41818 -20.02198 8.260443 -0 35.70066 -0 -4.205934 -15.31429 -2.550124 -7.07874 13.68054 -23.75493 -0 5.846919 -0 7.921465 -16.62537 24.75272 -3.234542 -2.777534 3.636754 2.426091 8.836329 -6.945173 1.217291 22.49688 7.960866 2.992267 -24.65415 10.82497 6.919841 -18.52296 10.98126 85.84411 39.84423 -19.35321 -0 0 13.38577 -6.741809 10.66835 5.608081 4.277702 -18.22541 -3.099478 -93.65288 31.88555 22.54186 0 0 -21.30374 3.297801 16.16754 11.87316
838.6249 103.1325 402.9022 -0.7405673 0.1629757 111.1646 4.41818 -20.02198 8.260443 -0 35.70066 -0 -4.205934 -15.31429 -2.550124 -7.07874 13.68054 -23.75493 -0 5.846919 -0 7.921465 -16.62537 24.75272 -3.234542 -2.777534 3.636754 2.426091 8.836329 -6.945173 1.217291 22.49688 7.960866 2.992267 -24.65415 10.82497 6.919841 -18.52296 10.98126 85.84411 39.84423 -19.35321 -0 0 13.38577 -6.741809 10.66835 5.608081 4.277702 -18.22541 -3.099478 -93.65288 31.88555 22.54186 0 0 -21.30374 3.297801 16.16754 11.87316
840.49 103.1332 401.8114 -0.7411879 0.1601296 111.3847 4.41818 -20.02198 8.260443 -0 35.70066 -0 -4.205934 -15.31429 -2.550124 -7.07874 13.68054 -23.75493 -0 5.846919 -0 7.921465 -16.62537 24.75272 -3.234542 -2.777534 3.636754 2.426091 8.836329 -6.945173 1.217291 22.49688 7.960866 2.992267 -24.65415 10.82497 6.919841 -18.52296 10.98126 85.84411 39.84423 -19.35321 -0 0 13.38577 -6.741809 10.66835 5.608081 4.277702 -18.22541 -3.099478 -93.65288 31.88555 22.54186 0 0 -21.30374 3.297801 16.16754 11.87316
842.3509 103.134 400.7135 -0.7417975 0.1572811 111.6048 4.41818 -20.02198 8.260443 -0 35.70066 -0 -4.205934 -15.31429 -2.550124 -7.07874 13.68054 -23.75493 -0 5.846919 -0 7.921465 -16.62537 24.75272 -3.234542 -2.777534 3.636754 2.426091 8.836329 -6.945173 1.217291 22.49688 7.960866 2.992267 -24.65415 10.82497 6.919841 -18.52296 10.98126 85.84411 39.84423 -19.35321 -0 0 13.38577 -6.741809 10.66835 5.608081 4.277702 -18.22541 -3.099478 -93.65288 31.88555 22.54186 0 0 -21.30374 3.297801 16.16754 11.87316
844.2076 103.1348 399.6085 -0.7423962 0.1544303 111.8248 4.41818 -20.02198 8.260443 -0 35.70066 -0 -4.205934 -15.31429 -2.550124 -7.07874 13.68054 -23.75493 -0 5.846919 -0 7.921465 -16.62537 24.75272 -3.234542 -2.777534 3.636754 2.426091 8.836329 -6.945173 1.217291 22.49688 7.960866 2.992267 -24.65415 10.82497 6.919841 -18.52296 10.98126 85.84411 39.84423 -19.35321 -0 0 13.38577 -6.741809 10.66835 5.608081 4.277702 -18.22541 -3.099478 -93.65288 31.88555 22.54186 0 0 -21.30374 3.297801 16.16754 11.87316
846.0601 103.1355 398.4963 -0.742984 0.1515773 112.0449 4.41818 -20.02198 8.260443 -0 35.70066 -0 -4.205934 -15.31429 -2.550124 -7.07874 13.68054 -23.75493 -0 5.846919 -0 7.921465 -16.62537 24.75272 -3.234542 -2.777534 3.636754 2.426091 8.836329 -6.945173 1.217291 22.49688 7.960866 2.992267 -24.65415 10.82497 6.919841 -18.52296 10.98126 85.84411 39.84423 -19.35321 -0 0 13.38577 -6.741809 10.66835 5.608081 4.277702 -18.22541 -3.099478 -93.65288 31.88555 22.54186 0 0 -21.30374 3.297801 16.16754 11.87316
847.9082 103.1363 397.377 -0.7435607 0.148722 112.265 4.41818 -20.02198 8.260443 -0 35.70066 -0 -4.205934 -15.31429 -2.550124 -7.07874 13.68054 -23.75493 -0 5.846919 -0 7.921465 -16.62537 24.75272 -3.234542 -2.777534 3.636754 2.426091 8.836329 -6.945173 1.217291 22.49688 7.960866 2.992267 -24.65415 10.82497 6.919841 -18.52296 10.98126 85.84411 39.84423 -19.35321 -0 0 13.38577 -6.741809 10.66835 5.608081 4.277702 -18.22541 -3.099478 -93.65288 31.88555 22.54186 0 0 -21.30374 3.297801 16.16754 11.87316
849.7521 103.1371 396.2506 -0.7441265 0.1458645 112.4851 4.41818 -20.02198 8.260443 -0 35.70066 -0 -4.205934 -15.31429 -2.550124 -7.07874 13.68054 -23.75493 -0 5.846919 -0 7.921465 -16.62537 24.75272 -3.234542 -2.777534 3.636754 2.426091 8.836329 -6.945173 1.217291 22.49688 7.960866 2.992267 -24.65415 10.82497 6.919841 -18.52296 10.98126 85.84411 39.84423 -19.35321 -0 0 13.38577 -6.741809 10.66835 5.608081 4.277702 -18.22541 -3.099478 -93.65288 31.88555 22.54186 0 0 -21.30374 3.297801 16.16754 11.87316
851.5916 103.1378 395.1172 -0.7446813 0.1430049 112.7052 4.41818 -20.02198 8.260443 -0 35.70066 -0 -4.205934 -15.31429 -2.550124 -7.07874 13.68054 -23.75493 -0 5.846919 -0 7.921465 -16.62537 24.75272 -3.234542 -2.777534 3.636754 2.426091 8.836329 -6.945173 1.217291 22.49688 7.960866 2.992267 -24.65415 10.82497 6.919841 -18.52296 10.98126 85.84411 39.84423 -19.35321 -0 0 13.38577 -6.741809 10.66835 5.608081 4.277702 -18.22541 -3.099478 -93.65288 31.88555 22.54186 0 0 -21.30374 3.297801 16.16754 11.87316
853.4267 103.1386 393.9767 -0.7452252 0.1401432 112.9253 4.41818 -20.02198 8.260443 -0 35.70066 -0 -4.205934 -15.31429 -2.550124 -7.07874 13.68054 -23.75493 -0 5.846919 -0 7.921465 -16.62537 24.75272 -3.234542 -2.777534 3.636754 2.426091 8.836329 -6.945173 1.217291 22.49688 7.960866 2.992267 -24.65415 10.82497 6.919841 -18.52296 10.98126 85.84411 39.84423 -19.35321 -0 0 13.38577 -6.741809 10.66835 5.608081 4.277702 -18.22541 -3.099478 -93.65288 31.88555 22.54186 0 0 -21.30374 3.297801 16.16754 11.87316
855.2575 103.1394 392.8291 -0.745758 0.1372793 113.1454 4.41818 -20.02198 8.260443 -0 35.70066 -0 -4.205934 -15.31429 -2.550124 -7.07874 13.68054 -23.75493 -0 5.846919 -0 7.921465 -16.62537 24.75272 -3.234542 -2.777534 3.636754 2.426091 8.836329 -6.945173 1.217291 22.49688 7.960866 2.992267 -24.65415 10.82497 6.919841 -18.52296 10.98126 85.84411 39.84423 -19.35321 -0 0 13.38577 -6.741809 10.66835 5.608081 4.277702 -18.22541 -3.099478 -93.65288 31.88555 22.54186 0 0 -21.30374 3.297801 16.16754 11.87316
857.0838 103.1401 391.6746 -0.7462798 0.1344135 113.3655 4.41818 -20.02198 8.260443 -0 35.70066 -0 -4.205934 -15.31429 -2.550124 -7.07874 13.68054 -23.75493 -0 5.846919 -0 7.921465 -16.62537 24.75272 -3.234542 -2.777534 3.636754 2.426091 8.836329 -6.945173 1.217291 22.49688 7.960866 2.992267 -24.65415 10.82497 6.919841 -18.52296 10.98126 85.84411 39.84423 -19.35321 -0 0 13.38577 -6.741809 10.66835 5.608081 4.277702 -18.22541 -3.099478 -93.65288 31.88555 22.54186 0 0 -21.30374 3.297801 16.16754 11.87316
